<?xml version="1.0" encoding="utf-8"?>
<!-- Generator: Adobe Illustrator 22.0.0, SVG Export Plug-In . SVG Version: 6.00 Build 0)  -->
<svg version="1.1" id="레이어_1" xmlns="http://www.w3.org/2000/svg" xmlns:xlink="http://www.w3.org/1999/xlink" x="0px"
	 y="0px" viewBox="0 0 48 25.9" style="enable-background:new 0 0 48 25.9;" xml:space="preserve">
<style type="text/css">
	.st0{fill:#E9B670;}
</style>
<path class="st0" d="M21.3,0c-0.2,0-0.4,0-0.6,0.1c-0.5,0.1-1.1,0.1-1.8,0.2c-1.2,0.2-2.4,0.4-3.4,0.7c-1.2,0.2-2.3,0.6-3.3,0.9
	l-0.3,0.1c-0.4,0.2-0.9,0.3-1.3,0.5c-0.4,0.2-0.8,0.4-1.1,0.5C9.2,3.2,9,3.3,8.8,3.3L8.5,3.5C8,3.7,7.6,3.9,7.1,4.2
	C6.9,4.3,6.6,4.5,6.3,4.7C6.2,4.7,6.1,4.8,6,4.9L5.8,5L5.7,5.1C5.5,5.2,5.4,5.4,5.2,5.6l0,0C4.9,5.9,4.7,6.1,4.5,6.4L4.4,6.5
	C4.1,6.7,3.9,6.8,3.7,7C3.3,7.4,2.8,7.8,2.4,8.4C2,8.8,1.6,9.3,1.3,9.9c-0.3,0.5-0.6,1.1-0.8,1.7c-0.1,0.3-0.2,0.7-0.2,0.9
	c0,0.1,0,0.2-0.1,0.4l0,0.3l0,0.2l0,0.1C0,13.7,0,14,0,14.3c0,0.2,0,0.3,0,0.5c0,0.3,0.1,0.6,0.2,1L0.3,16l0.1,0.3
	c0.1,0.4,0.3,0.8,0.5,1.2c0.2,0.4,0.4,0.7,0.7,1.1c0.3,0.4,0.5,0.7,0.7,0.9l0.4,0.4c0.1,0.1,0.2,0.2,0.4,0.4L3,20.3
	c0.1,0.1,0.1,0.1,0.2,0.2l0.2,0.2l0.2,0.2C3.9,20.9,4,21,4.2,21.2l0.2,0.2c0.6,0.4,1.2,0.8,1.8,1l0.7,0.3l0.3,0.1
	c0.2,0.1,0.4,0.2,0.6,0.2l0.3,0.1c0.2,0.1,0.4,0.1,0.6,0.2l0.3,0.1c0.2,0.1,0.5,0.2,0.7,0.2l0.1,0c0.3,0.1,0.6,0.2,0.9,0.3
	c0.1,0,0.3,0.1,0.4,0.1l0.1,0c0.1,0,0.2,0.1,0.3,0.1l0.5,0.1c0.4,0.1,0.9,0.2,1.3,0.3l0.5,0.1l0.5,0.1c0.1,0,0.1,0,0.2,0l0.1,0
	l0.4,0l0.3,0c0.7,0.1,1.3,0.2,2,0.2c0.5,0.1,1.1,0.1,1.6,0.2c0.7,0.1,1.3,0.1,2,0.2c1.2,0.1,2.5,0.2,3.7,0.2c1.3,0,2.6,0.1,3.8,0
	c0.6,0,1.2,0,1.9,0c0.3,0,0.7,0,1,0c0.1,0,0.2,0,0.3,0l0.2,0l0.2,0c0.1,0,0.1,0,0.2,0l0.3,0c0.2,0,0.4,0,0.6-0.1
	c0.4-0.1,0.7-0.1,1.1-0.2c0.7-0.1,1.3-0.3,1.8-0.4c0.5-0.1,1.1-0.3,1.6-0.4l0.2-0.1c0.7-0.2,1.2-0.4,1.7-0.6
	c0.2-0.1,0.5-0.2,0.7-0.3l0.2-0.1c0.2-0.1,0.5-0.3,0.7-0.4l0.1-0.1c0.5-0.3,1.1-0.6,1.7-1c0.4-0.3,0.9-0.6,1.3-0.9l0.2-0.1
	c0.5-0.3,1-0.7,1.4-1.1c0.3-0.3,0.6-0.6,0.8-1c0.2-0.3,0.4-0.6,0.7-1c0.2-0.3,0.3-0.6,0.4-0.9c0.3-0.8,0.4-1.7,0.3-2.5
	c-0.1-0.7-0.3-1.3-0.4-1.9c-0.1-0.3-0.2-0.6-0.3-0.8c-0.1-0.3-0.2-0.5-0.4-0.8c-0.2-0.3-0.4-0.7-0.5-1c-0.1-0.2-0.2-0.4-0.4-0.6
	l-0.1-0.2c-0.3-0.4-0.6-1-1-1.5c-0.1-0.1-0.1-0.2-0.2-0.2l-0.1-0.1c-0.1-0.1-0.1-0.2-0.2-0.3l-0.1-0.1c-0.2-0.2-0.4-0.5-0.7-0.7
	c-0.4-0.4-0.9-0.8-1.4-1.1C42,5.1,41.9,5,41.7,4.8l-0.2-0.1l-0.3-0.2c-0.1-0.1-0.3-0.2-0.4-0.3C40.6,4,40.3,3.9,40,3.7l-0.2-0.1
	c-0.2-0.1-0.4-0.2-0.6-0.3c-0.3-0.2-0.6-0.3-0.9-0.4l-0.1,0c-0.2-0.1-0.5-0.2-0.7-0.3c-1-0.4-2.2-0.8-3.5-1.2
	c-0.3-0.1-0.6-0.2-0.9-0.3l-0.6-0.2l-0.3-0.1c-0.4-0.1-0.9-0.2-1.3-0.2l-0.3,0c-0.2,0-0.4,0-0.6,0c-0.6,0-1.2-0.1-1.8-0.1
	c-0.7,0-1.3-0.1-2-0.2c-0.6-0.1-1.1-0.1-1.7-0.1C23.7,0,23,0,22.4,0C22,0,21.7,0,21.3,0"/>
</svg>
