<?xml version="1.0" encoding="utf-8"?>
<!-- Generator: Adobe Illustrator 24.3.0, SVG Export Plug-In . SVG Version: 6.00 Build 0)  -->
<svg version="1.1" id="Layer_1" xmlns="http://www.w3.org/2000/svg" xmlns:xlink="http://www.w3.org/1999/xlink" x="0px" y="0px"
	 viewBox="0 0 128.83 110.35" style="enable-background:new 0 0 128.83 110.35;" xml:space="preserve">
<style type="text/css">
	.st0{fill:#010202;}
</style>
<path class="st0" d="M128.42,49.2c-5.18-28.94-30-34.89-30-34.89c-0.3-0.06-0.6-0.1-0.9-0.16V6.94c0.05-0.32,0.09-0.65,0.09-0.99
	C97.6,2.67,94.94,0,91.65,0c-3.02,0-5.52,2.26-5.9,5.18h-0.06v8.15C76,13.8,68.47,16.98,64.42,19.14
	c-4.11-2.19-11.78-5.43-21.67-5.84V5.18h-0.06C42.31,2.26,39.82,0,36.79,0c-3.29,0-5.96,2.67-5.96,5.96c0,0.34,0.03,0.66,0.09,0.99
	v7.28c-0.17,0.03-0.34,0.05-0.51,0.09c0,0-24.82,5.94-30,34.89c0,0-6.32,31.96,30.25,46.45c0,0,0.09,0.03,0.26,0.09v7.67
	c-0.05,0.32-0.09,0.65-0.09,0.99c0,3.29,2.67,5.96,5.96,5.96c3.02,0,5.52-2.26,5.9-5.18h0.06v-8.33c5.8-0.44,13.31-2.28,21.67-7.46
	c8.17,5.07,15.53,6.94,21.27,7.43v8.37h0.06c0.38,2.92,2.87,5.18,5.9,5.18c3.29,0,5.96-2.67,5.96-5.96c0-0.34-0.03-0.66-0.09-0.99
	v-7.55c0.43-0.13,0.65-0.21,0.65-0.21C134.74,81.16,128.42,49.2,128.42,49.2z M101.16,80.03c-1.58,0.72-2.87,1.16-3.93,1.39
	c-10.67,3.08-20.65-1.68-20.65-1.68l15.38-17.11c8.82-5.88,1.53-12.35,1.53-12.35c-5.65-6.82-16.12,6.94-16.12,6.94
	c-7.53,13.65-29.65,23.06-29.65,23.06c-36,7.76-35.31-26.04-35.31-26.04c0.08-14.09,12.86-22.5,12.86-22.5l0.04,0.11
	c12.2-7.95,27.59-0.62,27.59-0.62L37.96,46.39c-8.47,9.06-2.94,13.29-2.94,13.29c5.53,6.12,12.12-1.41,12.12-1.41l16-16.94
	c35.18-29.65,48.82-1.53,48.82-1.53c3.41,4.66,4.54,9.52,4.44,14.1C116.62,59.8,115.47,73.49,101.16,80.03z"/>
<text transform="matrix(1 0 0 1 -123.2699 287.6964)"><tspan x="0" y="0" style="fill:#FFFFFF; font-family:'Helvetica95-Black'; font-size:60px;">INF</tspan><tspan x="103.32" y="0" style="font-family:'Helvetica95-Black'; font-size:60px;">INITYH </tspan></text>
</svg>
